<?xml version="1.0" encoding="UTF-8" standalone="no"?>
<!-- Created with Inkscape (http://www.inkscape.org/) -->

<svg
   xmlns:dc="http://purl.org/dc/elements/1.1/"
   xmlns:cc="http://creativecommons.org/ns#"
   xmlns:rdf="http://www.w3.org/1999/02/22-rdf-syntax-ns#"
   xmlns:svg="http://www.w3.org/2000/svg"
   xmlns="http://www.w3.org/2000/svg"
   xmlns:sodipodi="http://sodipodi.sourceforge.net/DTD/sodipodi-0.dtd"
   xmlns:inkscape="http://www.inkscape.org/namespaces/inkscape"
   version="1.1"
   id="svg2"
   xml:space="preserve"
   width="496.76001"
   height="92.90667"
   viewBox="0 0 496.76001 92.90667"
   sodipodi:docname="logo.svg"
   inkscape:version="0.92.1 r15371"><metadata
     id="metadata8"><rdf:RDF><cc:Work
         rdf:about=""><dc:format>image/svg+xml</dc:format><dc:type
           rdf:resource="http://purl.org/dc/dcmitype/StillImage" /><dc:title></dc:title></cc:Work></rdf:RDF></metadata><defs
     id="defs6" /><sodipodi:namedview
     pagecolor="#ffffff"
     bordercolor="#666666"
     borderopacity="1"
     objecttolerance="10"
     gridtolerance="10"
     guidetolerance="10"
     inkscape:pageopacity="0"
     inkscape:pageshadow="2"
     inkscape:window-width="783"
     inkscape:window-height="480"
     id="namedview4"
     showgrid="false"
     inkscape:zoom="0.11245156"
     inkscape:cx="434.64056"
     inkscape:cy="786.32182"
     inkscape:window-x="505"
     inkscape:window-y="548"
     inkscape:window-maximized="0"
     inkscape:current-layer="g10" /><g
     id="g10"
     inkscape:groupmode="layer"
     inkscape:label="ink_ext_XXXXXX"
     transform="matrix(1.3333333,0,0,-1.3333333,0,92.906667)"><g
       id="g12"
       transform="scale(0.1)"><path
         d="M 1369.43,343.328 1314.3,203.594 h 115.81 l -60.68,139.734 z M 1250.63,86.9336 1361.31,369.836 c 11.54,0 19.65,7.684 25.21,18.367 l 116.1,-267.656 c 15.64,-36.8243 50.15,-63.9532 86.9,-63.9532 36.75,0 63.67,25.6328 63.67,65.3792 0,19.226 -6.83,39.316 -43.16,64.101 l -43.15,29.485 c -27.78,19.226 -49.58,47.859 -49.58,81.199 0,40.168 30.77,76.055 80.34,76.055 26.92,0 45.29,-9.825 61.11,-18.372 2.99,-11.113 4.27,-14.097 12.82,-40.164 -15.81,24.356 -40.6,45.723 -70.51,45.723 -29.92,0 -59.82,-16.238 -59.82,-52.988 0,-30.774 24.78,-48.289 41.02,-59.407 l 47.86,-33.328 c 50,-34.621 52.14,-66.66 52.14,-82.898 0,-56.4181 -47.44,-87.6095 -92.31,-87.6095 -10.68,0 -20.63,1.5899 -30.24,4.2774 h -97.55 v 2.1289 c 6.41,0.8594 21.37,2.5664 21.37,19.2383 0,9.4023 -3,16.2304 -5.56,23.0742 l -42.73,98.2817 h -126.07 l -38.46,-98.7114 c -1.71,-4.707 -4.27,-11.9688 -4.27,-20.0859 0,-17.5196 16.24,-20.0782 28.2,-21.7969 v -2.1289 h -85.89 v 2.1289 c 20.51,1.7187 29.48,4.707 41.88,36.7578 v 0"
         style="fill:#ffffff;fill-opacity:1;fill-rule:nonzero;stroke:none"
         id="path14"
         inkscape:connector-curvature="0" /><path
         d="m 1719.64,94.8516 c 0,-22.6446 -0.85,-37.5938 -25.64,-42.3008 v -2.1406 h 86.32 v 2.1406 c -25.21,3.418 -26.49,18.3789 -26.49,41.0234 V 204.258 h 191.45 V 88.8672 c 0,-19.2266 -2.99,-32.8984 -25.64,-36.3164 v -2.1406 h 86.32 v 2.1406 c -20.09,3.418 -26.5,9.832 -26.5,35.4648 V 332.031 c 0,22.649 2.14,34.18 26.5,36.746 v 2.141 h -87.18 v -2.141 c 17.09,-2.566 26.5,-5.984 26.5,-35.894 V 217.07 h -191.45 v 111.114 c 0,26.066 2.99,37.609 26.49,40.593 v 2.141 H 1694 v -2.141 c 25.21,-2.984 25.64,-20.086 25.64,-38.464 v -235.4614 0"
         style="fill:#ffffff;fill-opacity:1;fill-rule:nonzero;stroke:none"
         id="path16"
         inkscape:connector-curvature="0" /><path
         d="m 2049.06,95.2813 c 0,-25.2149 -1.71,-38.0235 -25.64,-42.7305 v -2.1406 h 203.41 c 0.86,10.2539 1.29,13.25 5.12,39.3164 l -2.13,0.4297 c -8.97,-14.5313 -14.96,-23.5079 -46.15,-23.5079 h -63.25 c -29.91,0 -37.17,7.6993 -37.17,44.0276 v 93.152 h 81.61 c 26.5,0 26.5,-11.973 26.5,-18.801 h 2.14 v 49.563 h -2.14 c -2.14,-17.942 -17.52,-17.942 -27.35,-17.942 h -80.76 V 354.68 h 91.02 c 15.81,0 33.33,-2.992 38.45,-24.789 h 2.14 v 41.027 h -191.44 v -2.141 c 23.07,-4.273 25.64,-14.949 25.64,-40.593 v -232.9027 0"
         style="fill:#ffffff;fill-opacity:1;fill-rule:nonzero;stroke:none"
         id="path18"
         inkscape:connector-curvature="0" /><path
         d="M 2409.02,46.1406 2523.55,317.93 c 20.51,48.711 35.47,49.992 48.31,50.847 v 2.141 h -85.04 v -2.141 c 9.82,-1.707 26.91,-4.273 26.91,-21.367 0,-5.125 -1.29,-11.961 -6.84,-24.351 l -89.74,-214.961 -102.56,214.961 c -5.55,11.531 -8.98,18.796 -8.98,27.339 0,12.825 14.12,16.672 20.95,18.379 v 2.141 h -105.13 v -2.141 c 23.93,-2.984 36.75,-8.972 52.56,-42.304 L 2409.02,46.1406 v 0"
         style="fill:#ffffff;fill-opacity:1;fill-rule:nonzero;stroke:none"
         id="path20"
         inkscape:connector-curvature="0" /><path
         d="m 2607.17,95.2813 c 0,-25.2149 -2.99,-38.8868 -25.65,-42.7305 v -2.1406 h 85.47 v 2.1406 c -22.2,3.8437 -25.64,14.5312 -25.64,40.6015 V 330.313 c 0,23.515 2.58,35.046 25.64,38.898 v 1.707 h -85.47 v -2.141 c 23.52,-3.418 25.65,-16.668 25.65,-38.464 v -235.0317 0"
         style="fill:#ffffff;fill-opacity:1;fill-rule:nonzero;stroke:none"
         id="path22"
         inkscape:connector-curvature="0" /><path
         d="m 2709.96,96.1328 c 0,-31.6211 -4.71,-41.0156 -26.05,-43.582 v -2.1406 h 202.97 l 20.93,51.7068 -2.13,0.86 c -13.24,-22.2231 -21.36,-36.3286 -52.13,-36.3286 h -55.54 c -46.6,0 -53.85,8.125 -53.85,54.6996 v 208.543 c 0,28.207 7.25,35.902 25.63,38.886 v 2.141 h -85.88 v -2.141 c 17.93,-2.984 26.05,-9.824 26.05,-35.894 v -236.7502 0"
         style="fill:#ffffff;fill-opacity:1;fill-rule:nonzero;stroke:none"
         id="path24"
         inkscape:connector-curvature="0" /><path
         d="m 2933.4,96.1328 c 0,-31.6211 -4.71,-41.0156 -26.08,-43.582 v -2.1406 h 202.99 l 20.94,51.7068 -2.13,0.86 c -13.26,-22.2231 -21.37,-36.3286 -52.15,-36.3286 h -55.54 c -46.59,0 -53.85,8.125 -53.85,54.6996 v 208.543 c 0,28.207 7.26,35.902 25.64,38.886 v 2.141 h -85.9 v -2.141 c 17.95,-2.984 26.08,-9.824 26.08,-35.894 v -236.7502 0"
         style="fill:#ffffff;fill-opacity:1;fill-rule:nonzero;stroke:none"
         id="path26"
         inkscape:connector-curvature="0" /><path
         d="m 3156,95.2813 c 0,-25.2149 -1.7,-38.0235 -25.65,-42.7305 v -2.1406 h 203.42 c 0.86,10.2539 1.29,13.25 5.12,39.3164 l -2.11,0.4297 C 3327.79,75.625 3321.8,66.6484 3290.61,66.6484 h -63.25 c -29.9,0 -37.16,7.6993 -37.16,44.0276 v 93.152 h 81.62 c 26.48,0 26.48,-11.973 26.48,-18.801 h 2.15 v 49.563 h -2.15 c -2.13,-17.942 -17.52,-17.942 -27.34,-17.942 H 3190.2 V 354.68 h 91.01 c 15.82,0 33.32,-2.992 38.46,-24.789 h 2.13 v 41.027 h -191.45 v -2.141 c 23.09,-4.273 25.65,-14.949 25.65,-40.593 v -232.9027 0"
         style="fill:#ffffff;fill-opacity:1;fill-rule:nonzero;stroke:none"
         id="path28"
         inkscape:connector-curvature="0" /><path
         d="m 1914.8,554.094 v 0 c -1.15,-9.629 -7.13,-27.297 -13.86,-40.063 v 0.063 c -1.81,-3.508 -3.69,-6.594 -5.53,-9.067 -6.74,-9.05 -12,-10.945 -16.63,-10.945 -6.1,0 -9.05,6.102 -8.63,13.477 0.1,1.828 0.41,4.035 0.9,6.504 v 0.031 c 2.18,10.847 7.97,26.992 16.05,40.039 v -0.039 0 c 1.31,2.144 2.68,4.168 4.1,6.082 6.1,8.215 11.15,10.105 15.36,10.105 7.37,0 8.63,-7.359 8.43,-13.894 -0.03,-0.684 -0.09,-1.438 -0.19,-2.246 m 1.87,-40.047 c 8.67,13.219 12.35,27.129 12.84,35.984 0.07,1.348 0.08,2.664 0.03,3.945 v 0.071 c -0.55,13.219 -7.87,22.5 -21.5,22.5 -8.64,0 -18.1,-3.156 -29.05,-13.672 -2.82,-2.707 -5.4,-5.664 -7.71,-8.781 v -0.047 0 c -9.4,-12.629 -14.56,-27.856 -15.24,-38.332 -0.03,-0.555 -0.06,-1.106 -0.08,-1.653 v -0.015 0 c -0.63,-17.035 8.08,-26.328 21.13,-26.328 5.69,0 17.06,1.05 30.11,14.531 3.66,3.758 6.8,7.754 9.47,11.812"
         style="fill:#ffffff;fill-opacity:1;fill-rule:evenodd;stroke:none"
         id="path30"
         inkscape:connector-curvature="0" /><path
         d="m 861.566,474.094 v 0 c 9.215,-3.528 19.329,-5.278 28.938,-5.278 9.48,0 19.336,1.711 28.601,5.305 v -0.027 c 5.196,2.047 10.208,4.668 14.856,7.898 12.48,8.778 19.219,20.391 22.781,32.156 v -0.054 c 3.102,10.308 3.805,20.672 3.805,29.39 v 10.61 40 0 27.515 c 0,18.957 8.32,21.731 15.719,21.731 l -42.766,1.152 c 14.332,-2.304 17.801,-6.242 17.801,-22.187 v -28.211 0 -40 0 -8.762 c 0,-13.594 -1.012,-23.152 -3.797,-31.25 l 0.008,0.012 c -2.379,-6.926 -6.043,-12.766 -11.465,-19.153 -10.867,-12.246 -28.199,-17.336 -42.535,-17.336 -13.867,0 -32.129,4.622 -43.922,20.571 -3.09,4.199 -5.867,9.187 -7.926,15.855 v 0.063 c -2.246,7.222 -3.629,16.504 -3.629,28.922 v 11.078 40 0 29.597 c 0,13.868 2.778,16.407 14.098,19.649 l -46.918,1.152 c 11.09,-2.539 14.332,-7.168 14.332,-21.726 v -28.672 0 -40 0 -10.61 c 0,-12.39 1.566,-21.785 4.16,-29.402 v 0.012 0 c 3.695,-10.871 9.461,-18.098 15.719,-25.168 5.883,-6.543 13.633,-11.438 22.14,-14.766"
         style="fill:#ffffff;fill-opacity:1;fill-rule:evenodd;stroke:none"
         id="path32"
         inkscape:connector-curvature="0" /><path
         d="m 1070.91,514.094 -35.54,40 -35.55,40 v 0 l -6.578,7.398 h -25.887 c 6.985,-0.262 11.301,-3.465 13.961,-7.437 v 0.039 0 c 4.297,-6.438 4.297,-14.797 4.297,-15.942 v -24.058 0 -40 0 -22.383 c 0,-9.863 -0.984,-15.117 -4.906,-17.602 v -0.015 0 c -1.777,-1.106 -4.164,-1.66 -7.344,-1.809 l 34.447,-1.152 c -4.19,0.652 -7.22,1.34 -9.337,3.027 v -0.066 c -3.153,2.578 -4.309,7.293 -4.309,17.379 v 22.621 40 24.058 l 21.386,-24.058 v 0 l 35.56,-40 v 0 l 35.55,-40 v 0 l 5.51,-6.203 v 6.203 40 40 27.293 c 0,5.769 0.39,9.851 1.37,12.715 v -0.008 0 c 1.53,4.48 4.51,5.972 9.73,6.246 l -33.06,1.152 c 6.72,-0.972 10.22,-2.879 11.93,-7.422 v 0.024 0 c 1.12,-2.981 1.48,-7.051 1.48,-12.707 v -27.293 0 -40 -14.297 l -12.71,14.297"
         style="fill:#ffffff;fill-opacity:1;fill-rule:evenodd;stroke:none"
         id="path34"
         inkscape:connector-curvature="0" /><path
         d="m 1135.09,594.094 v 0 c 1.28,3.844 3.94,5.699 9.3,6.246 l -36.52,1.152 c 5.66,-1.179 8.24,-3.633 9.42,-7.449 v 0.051 0 c 0.89,-2.942 0.98,-6.606 0.98,-11.086 v -28.914 0 -40 0 -24.465 c 0,-8.43 -0.71,-13.195 -4.41,-15.566 v 0.031 0 c -1.47,-0.981 -3.42,-1.543 -5.99,-1.809 l 36.52,-1.152 c -2.95,0.617 -5.07,1.582 -6.58,2.898 v 0.063 c -3.6,3.074 -3.83,8.219 -3.83,15.535 v 24.465 40 28.914 c 0,4.785 0.23,8.398 1.11,11.055"
         style="fill:#ffffff;fill-opacity:1;fill-rule:evenodd;stroke:none"
         id="path36"
         inkscape:connector-curvature="0" /><path
         d="m 1259.73,594.094 v 0 c 0.13,-0.559 0.19,-1.164 0.19,-1.836 0,-3.703 -1.38,-7.863 -2.31,-9.945 l -11.76,-28.219 v 0 l -16.66,-40 -7.4,-17.766 -8.36,17.766 -18.82,40 -13.28,28.219 c -1.15,2.316 -3.23,6.703 -3.23,10.863 0,0.332 0.02,0.64 0.05,0.945 v -0.027 0 c 0.6,4.761 5.64,5.816 8.04,6.246 l -43.69,1.152 c 6.37,-1.472 10.55,-2.859 14.5,-7.371 v -0.027 0 c 2.21,-2.5 4.36,-6.02 6.76,-11.086 l 13.94,-28.914 v 0 l 19.27,-40 v 0 l 19.27,-40 v 0 l 2.54,-5.278 2.23,5.278 16.91,40 16.92,40 10.86,25.679 c 2.91,6.77 5.42,11.282 7.7,14.309 v 0.012 0 c 4.42,5.847 7.98,6.101 11.95,6.246 l -36.06,1.152 c 3.94,-1.648 9.36,-2.566 10.44,-7.398"
         style="fill:#ffffff;fill-opacity:1;fill-rule:evenodd;stroke:none"
         id="path38"
         inkscape:connector-curvature="0" /><path
         d="m 1361.81,594.094 0.51,7.398 h -78.82 c 5.59,-1.668 8.22,-3.691 9.43,-7.429 v 0.031 0 c 0.79,-2.473 0.97,-5.649 0.97,-9.934 v -30.066 0 -40 0 -23.313 c 0,-9.531 -0.49,-14.226 -4.34,-16.621 v -0.066 0 c -1.48,-0.84 -3.45,-1.418 -6.06,-1.809 l 83.44,-1.152 0.37,2.961 1.71,13.445 c -7.16,-8.777 -8.32,-9.473 -18.96,-9.473 h -26.35 c -12.25,0 -14.1,3.7 -14.1,17.571 v 18.457 18.992 h 32.13 c 8.79,0 9.71,-3.008 9.71,-7.637 l 1.16,20.574 c -1.62,-4.39 -2.78,-7.168 -11.33,-7.168 h -31.67 v 15.239 40 0 0.476 h 36.76 c 2.34,0 4.27,-0.168 5.88,-0.468 v -0.008 0 c 6.96,-1.289 7.78,-5.188 8.91,-9.699 l 0.65,9.699"
         style="fill:#ffffff;fill-opacity:1;fill-rule:evenodd;stroke:none"
         id="path40"
         inkscape:connector-curvature="0" /><path
         d="m 1555.35,554.094 v 0 -64.465 c 0,-8.43 -0.71,-13.195 -4.41,-15.566 v 0.031 0 c -1.48,-0.981 -3.43,-1.543 -5.99,-1.809 l 36.51,-1.152 c -2.94,0.617 -5.06,1.582 -6.58,2.898 v 0.063 c -3.59,3.074 -3.82,8.219 -3.82,15.535 v 24.465 40 28.914 c 0,4.785 0.23,8.398 1.11,11.055 v 0.031 0 c 1.28,3.844 3.94,5.699 9.29,6.246 l -36.51,1.152 c 5.65,-1.179 8.24,-3.633 9.42,-7.449 v 0.051 0 c 0.89,-2.942 0.98,-6.606 0.98,-11.086 v -28.914"
         style="fill:#ffffff;fill-opacity:1;fill-rule:evenodd;stroke:none"
         id="path42"
         inkscape:connector-curvature="0" /><path
         d="m 1759.62,474.094 v 0 c 1.81,-1.242 3.97,-1.528 6.13,-1.809 l -36.99,-1.152 c 2.74,0.73 4.97,1.535 6.67,2.969 v -0.008 c 2.61,2.222 3.97,5.945 3.97,13.219 v 26.781 24.304 l -11.87,15.696 -25.76,34.09 c -1.38,1.718 -2.73,3.211 -4.08,4.492 -1.23,0.715 -2.69,1.179 -4.48,1.472 v -0.054 c -1.79,0.347 -3.91,0.476 -6.47,0.476 h -36.52 v -0.476 0 -40 0 -40 0 -26.321 c 0,-8.281 1.43,-11.882 4.62,-13.71 v 0.031 0 c 1.62,-0.949 3.68,-1.418 6.24,-1.809 l -36.75,-1.152 c 2.64,0.847 4.65,1.711 6.17,2.949 v 0.012 c 2.98,2.437 4,6.394 4,14.832 v 25.168 40 40 0.476 h -36.98 c -1.69,0 -3.11,-0.156 -4.3,-0.41 v -0.066 0 c -5.15,-1.067 -6.09,-4.375 -7.03,-7.383 l -0.57,7.383 v 0 l -0.59,7.398 h 95.19 19.7 28.61 c -3.93,-1.375 -9.24,-1.844 -9.24,-6.922 0,-0.168 0,-0.332 0.01,-0.5 v 0.024 0 c 0.21,-3.528 2.6,-6.789 4.15,-8.774 l 22.45,-31.226 v 0 l 2.98,-4.145 2.76,4.145 21.73,32.617 c 2.26,3.562 2.99,5.762 3.18,7.32 v 0.063 0 c 0.05,0.301 0.06,0.633 0.06,0.933 0,4.621 -3.47,5.09 -6.7,5.313 l 36.52,1.152 c -6.18,-1.328 -11.03,-1.941 -16.74,-7.41 v 0.012 0 c -2.19,-2.114 -4.5,-4.922 -7.07,-8.774 l -20.99,-31.226 -6.51,-9.692 v -30.308 0 -26.086 c 0,-8.516 1.87,-12.215 4.5,-13.965"
         style="fill:#ffffff;fill-opacity:1;fill-rule:evenodd;stroke:none"
         id="path44"
         inkscape:connector-curvature="0" /><path
         d="m 1946.99,474.094 c 0.57,1.668 1.14,3.426 1.72,5.254 3.45,11.531 6.71,23.113 9.93,34.722 v 0.024 c 3.25,11.687 6.47,23.406 9.85,35.133 0.48,1.632 0.96,3.285 1.42,4.894 v -0.027 c 1.32,4.707 2.49,9.109 3.42,11.765 h 26.1 c 3.16,2.317 3.58,5.469 2.11,7.793 h -26.31 c 2.22,6.973 4.21,13.828 6.4,20.43 v 0.012 0 c 3.43,10.301 7.35,19.996 13.38,28.601 5.05,7.157 10.32,11.368 16.42,11.368 5.47,0 12.21,-3.79 12.84,-16.418 0.21,-1.473 1.05,-3.368 2.95,-3.368 3.37,0 9.05,6.524 9.05,13.047 0,8.418 -8.42,13.895 -17.26,13.895 -12.42,0 -24.84,-5.059 -35.36,-17.469 -7.74,-9.191 -12.79,-19.023 -16.81,-29.707 v 0.051 0 c -2.44,-6.528 -4.5,-13.301 -6.56,-20.442 h -18.1 c -2.74,-1.894 -3.58,-5.898 -1.47,-7.793 h 17.46 c -1.14,-3.894 -2.25,-7.812 -3.32,-11.757 v -0.008 0 c -3.6,-13.164 -6.86,-26.567 -10.15,-40.024 v 0.024 0 c -3.26,-13.352 -6.56,-26.742 -10.27,-40.039 v 0.039 0 c -1.29,-4.668 -2.63,-9.297 -4.04,-13.899 -4.42,-14.316 -9.47,-17.472 -13.26,-17.472 -4.21,0 -9.68,2.953 -12.63,7.785 -1.68,2.746 -3.16,4.426 -6.1,1.894 -1.48,-1.047 -4,-2.937 -4,-7.578 0,-3.574 4,-10.73 13.68,-10.73 12.42,0 21.47,8.211 24,10.73 3.99,3.614 9.53,13.418 14.91,29.246"
         style="fill:#ffffff;fill-opacity:1;fill-rule:evenodd;stroke:none"
         id="path46"
         inkscape:connector-curvature="0" /><path
         d="m 2115.05,474.094 c -6.53,3.523 -7.47,10.437 -7.47,24.312 v 15.688 40 40 0 22.203 l 19.83,-22.203 v 0 l 35.73,-40 h 0.01 v 0 l 35.73,-40 v 0 l 35.74,-40 v 0 l 4.71,-5.278 v 5.278 40 40 40 0 23.359 c 0,13.629 0,24.735 14.8,25.887 l -41.84,1.152 c 14.1,-2.304 17.79,-5.773 17.79,-27.039 v -23.359 0 -40 0 -40 -7.824 l -6.97,7.824 -35.65,40 -35.65,40 -44.93,50.398 h -33.05 c 16.41,-1.387 24.5,-13.644 24.5,-31.203 v -19.195 0 -40 0 -40 0 -15.688 c 0,-15.84 -3.32,-21.824 -7.9,-24.258 v -0.054 0 c -2.56,-1.313 -5.52,-1.555 -8.52,-1.809 l 43.92,-1.152 c -4.67,0.594 -8.17,1.484 -10.78,2.91"
         style="fill:#ffffff;fill-opacity:1;fill-rule:evenodd;stroke:none"
         id="path48"
         inkscape:connector-curvature="0" /><path
         d="m 2426.62,594.094 v -56.621 h 8.56 c 10.17,0 17.11,0.465 24.74,6.699 2.58,2.117 4.94,5.68 6.62,9.922 1.62,4.07 2.62,8.777 2.62,13.426 0,8.093 -3.24,15.488 -8.32,21.035 -1.74,1.59 -4.2,3.996 -9.57,5.539 v 0 0.027 c -3.22,0.945 -7.5,1.602 -13.32,1.602 h -11.33 v -1.629 0 m -16.74,0 c -1.36,4.07 -4.22,5.742 -9.37,7.398 h 42.54 c 9.63,0 20.29,0 29.65,-7.398 v -0.063 c 0.52,-0.406 1.03,-0.847 1.54,-1.316 6.48,-6.004 10.64,-15.02 10.64,-25.195 0,-3.516 -0.56,-8.418 -2.59,-13.426 v -0.051 c -3.05,-7.57 -9.4,-15.52 -22.15,-19.805 l 6.93,-9.48 c 2.68,-3.84 5.23,-7.383 7.68,-10.664 17.87,-23.899 30.02,-33.528 39.1,-40 v -0.012 c 1.95,-1.406 3.77,-2.656 5.47,-3.879 -0.69,0 -3.25,-0.457 -4.16,-0.457 -1.06,0 -7.07,1.121 -14.79,4.348 v 0 -0.024 c -5.82,2.414 -12.6,5.996 -18.96,11.164 -8.34,6.746 -16.98,18.145 -24.18,28.86 v 0 -0.031 c -2.19,3.21 -4.22,6.367 -6.1,9.304 l -5.78,8.789 c -4.86,-0.468 -5.31,-0.468 -11.09,-0.468 h -7.64 v -17.594 -25.852 c 0,-8.523 1.37,-12.09 4.06,-14.148 v -0.031 c 1.64,-1.25 3.75,-1.973 6.35,-2.93 l -36.52,1.152 c 2.97,0.203 5.08,0.828 6.6,1.809 v 0 0.039 c 3.81,2.555 3.81,7.555 3.81,14.336 v 25.625 0 40 0 31.226 c 0,3.821 -0.31,6.633 -1.04,8.774 v 0"
         style="fill:#ffffff;fill-opacity:1;fill-rule:evenodd;stroke:none"
         id="path50"
         inkscape:connector-curvature="0" /><path
         d="m 2497.19,594.094 v 0 -7.383 c 1.87,3.008 2.99,6.316 8.18,7.449 v -0.066 0 c 1.19,0.32 2.62,0.476 4.3,0.476 h 36.99 v -0.476 0 -40 0 -40 0 -25.168 c 0,-8.836 -1.13,-12.754 -4.45,-14.793 v -0.039 0 c -1.45,-0.852 -3.32,-1.379 -5.73,-1.809 l 36.76,-1.152 c -2.87,0.871 -5.11,1.672 -6.79,2.988 v -0.027 c -2.82,2.234 -4.09,5.879 -4.09,13.679 v 26.321 40 40 0.476 h 36.53 c 2.67,0 4.63,-0.136 6.11,-0.461 v -0.015 0 c 3.81,-0.801 4.61,-2.903 6.6,-7.383 l 0.24,7.383 0.23,7.398 h -114.88 v -7.398"
         style="fill:#ffffff;fill-opacity:1;fill-rule:evenodd;stroke:none"
         id="path52"
         inkscape:connector-curvature="0" /><path
         d="m 2637.75,594.094 v 0 c 1.39,3.984 4.14,5.406 9.18,6.246 l -36.52,1.152 c 5.63,-1.258 8.26,-3.562 9.45,-7.371 v -0.027 0 c 0.77,-2.406 0.94,-5.453 0.94,-9.242 v -30.758 0 -40 0 -24.699 c 0,-7.297 0,-12.54 -4.75,-15.301 v 0 c -1.4,-0.832 -3.26,-1.426 -5.64,-1.809 l 36.52,-1.152 c -2.71,0.879 -4.72,1.816 -6.23,2.976 v -0.015 c -3.59,2.82 -4.18,6.922 -4.18,14.605 v 25.395 19.215 h 75.12 v -19.215 0 -27.246 c 0,-5.657 -0.14,-10.239 -4.65,-12.793 v 0.039 0 c -1.38,-0.832 -3.18,-1.426 -5.51,-1.809 l 36.53,-1.152 c -2.64,0.879 -4.94,1.59 -6.72,3.015 v -0.054 c -2.46,2.019 -3.93,5.332 -3.93,12.293 v 27.707 40 31.453 c 0,3.574 0.16,6.394 0.78,8.586 v -0.039 0 c 1.14,3.933 3.79,5.808 9.87,6.246 l -36.76,1.152 c 4.57,-1.465 7.87,-2.469 9.41,-7.351 v -0.047 0 c 0.65,-1.977 0.98,-4.66 0.98,-8.313 v -31.687 -15 h -75.12 v 15 28.219 c 0,5.382 0.34,9.105 1.23,11.73"
         style="fill:#ffffff;fill-opacity:1;fill-rule:evenodd;stroke:none"
         id="path54"
         inkscape:connector-curvature="0" /><path
         d="m 690.969,206.328 c 95.308,48.074 191.801,34.442 271.691,9.883 2.606,-0.789 3.293,0.82 1.656,2.551 C 947.387,234.121 844.934,274.395 730.938,240.82 598.801,201.875 437.418,84.8438 410.805,61.1523 c -2.45,-2.1679 -0.903,-5.0117 1.789,-3.5937 19.371,12.3047 108.789,78.0074 214.933,124.3434 l 37.707,-86.5309 c 5.118,-13.6523 11.079,-27.2656 11.079,-46.0352 0,-33.2421 -29.825,-36.6406 -42.606,-38.3398 V 6.72656 H 834 v 4.26954 c -55.406,4.2383 -66.484,17.8906 -97.164,88.6211 L 690.969,206.328 v 0"
         style="fill:#ffffff;fill-opacity:1;fill-rule:nonzero;stroke:none"
         id="path56"
         inkscape:connector-curvature="0" /><path
         d="M 448.508,596.523 251.301,94.9883 c -3.41,-9.375 -9,-30.2539 -8.52,-40.0547 0.387,-7.8359 11.282,-8.2227 16.375,-5.0977 45.821,23.1329 95.535,55.8011 146.414,90.7891 31.766,21.418 66.356,46.035 104.188,74.227 25.215,18.808 52.515,36.308 81.347,51.527 v 0 z M 653.223,294.902 c 160.996,64.239 346.897,61.055 442.667,-80.078 1.43,-2.129 -0.5,-2.344 -1.57,-0.82 C 1006.79,339.863 782.195,382.988 523.121,192.18 236.949,-18.5742 112.535,-21.8164 6.72266,39.6484 3.92578,41.2695 4.72656,43.2813 7.76953,41.7852 35.7422,26.7969 63.457,13.8945 98.9883,11.2891 c 9.8277,-0.7149 19.5857,-0.7618 29.2737,-0.293 40.918,3.3984 58.812,9.375 83.539,73.3008 L 432.559,648.535 c 23.004,0 39.195,15.332 50.277,36.649 L 653.223,294.902 v 0"
         style="fill:#ffffff;fill-opacity:1;fill-rule:nonzero;stroke:none"
         id="path58"
         inkscape:connector-curvature="0" /><path
         d="M 448.508,596.523 251.301,94.9883 c -3.41,-9.375 -9,-30.2539 -8.52,-40.0547 0.387,-7.8359 11.282,-8.2227 16.375,-5.0977 45.821,23.1329 95.535,55.8011 146.414,90.7891 31.766,21.418 66.356,46.035 104.188,74.227 25.215,18.808 52.515,36.308 81.347,51.527 v 0 z M 653.223,294.902 c 160.996,64.239 346.897,61.055 442.667,-80.078 1.43,-2.129 -0.5,-2.344 -1.57,-0.82 C 1006.79,339.863 782.195,382.988 523.121,192.18 236.949,-18.5742 112.535,-21.8164 6.72266,39.6484 3.92578,41.2695 4.72656,43.2813 7.76953,41.7852 35.7422,26.7969 63.457,13.8945 98.9883,11.2891 c 9.8277,-0.7149 19.5857,-0.7618 29.2737,-0.293 40.918,3.3984 58.812,9.375 83.539,73.3008 L 432.559,648.535 c 23.004,0 39.195,15.332 50.277,36.649 L 653.223,294.902 Z"
         style="fill:none;stroke:#ffffff;stroke-width:10;stroke-linecap:butt;stroke-linejoin:miter;stroke-miterlimit:4;stroke-dasharray:none;stroke-opacity:1"
         id="path60"
         inkscape:connector-curvature="0" /><path
         d="m 2276,514.094 c -3.37,7.832 -5.22,16.558 -5.22,25.691 0,4.746 0.5,9.602 1.54,14.356 v -0.047 c 4.18,19.187 17,36.765 40.2,39.961 v 0.039 0 c 2.46,0.293 5.04,0.476 7.71,0.476 2.62,0 5.2,-0.175 7.72,-0.507 v 0.031 0 c 22.62,-3.008 40.66,-18.926 47.97,-40.024 v 0.024 0 c 2.26,-6.594 3.49,-13.672 3.49,-21.008 0,-5.496 -0.78,-12.227 -2.81,-19.063 v 0.071 c -5.19,-17.676 -18.47,-36.028 -47.11,-36.028 -24.57,0 -44.47,14.934 -53.49,35.989 m -16.42,0.039 v 0 c 5.47,-18.086 18.97,-32.844 36.85,-40.039 v 0.039 0 c 7.63,-3.11 16.05,-4.809 24.98,-4.809 9.04,0 17.63,1.731 25.52,4.824 v -0.015 c 18.77,7.359 33.58,22.39 41.06,40.015 v -0.015 c 3.42,8.113 5.29,16.754 5.29,25.457 0,5 -0.57,9.863 -1.62,14.519 v 0.024 c -3.91,16.961 -14.53,31.297 -29.12,40.054 v -0.054 c -9.75,5.894 -21.27,9.254 -33.75,9.254 -12.81,0 -24.92,-3.336 -35.41,-9.227 v -0.027 0 c -15.47,-8.656 -27.44,-22.864 -33.02,-40.031 v 0.031 0 c -2.24,-6.914 -3.45,-14.27 -3.45,-21.938 0,-6.265 0.93,-12.343 2.67,-18.086"
         style="fill:#ffffff;fill-opacity:1;fill-rule:evenodd;stroke:none"
         id="path62"
         inkscape:connector-curvature="0" /><path
         d="m 1401.57,594.094 v -56.621 h 8.55 c 10.17,0 17.11,0.465 24.73,6.699 2.6,2.117 4.94,5.68 6.63,9.922 v 0 c 1.62,4.07 2.62,8.777 2.62,13.426 0,8.093 -3.24,15.488 -8.32,21.035 -1.73,1.59 -4.19,3.996 -9.57,5.539 v 0 c -3.23,0.972 -7.51,1.629 -13.31,1.629 h -11.33 v -1.629 m 4.59,-120 v 0 c 1.55,-0.93 3.48,-1.34 5.81,-1.809 l -36.52,-1.152 c 3.25,0.578 5.49,1.562 7.02,2.93 v 0.031 c 3.38,2.984 3.38,7.859 3.38,14.375 v 25.625 40 0 31.226 c 0,3.821 -0.3,6.633 -1.02,8.723 v 0.051 0 c -1.36,3.933 -4.23,5.34 -9.38,6.246 l 42.53,1.152 c 9.64,0 20.31,0 29.66,-7.461 0.51,-0.406 1.03,-0.847 1.54,-1.316 6.48,-6.004 10.64,-15.02 10.64,-25.195 0,-3.516 -0.56,-8.418 -2.59,-13.426 v -0.051 c -3.05,-7.57 -9.4,-15.52 -22.14,-19.805 l 6.93,-9.48 c 2.68,-3.852 5.24,-7.406 7.7,-10.664 v 0 c 10.4,-13.926 18.88,-22.981 25.98,-29.27 10.74,-7.683 22.3,-9.765 28.98,-9.765 16.41,0 25.19,11.789 25.19,25.886 0,4.922 -1.03,9.133 -3.47,13.137 v 0.012 c -2.61,4.273 -6.84,8.328 -13.17,12.742 l -17.11,12.019 c -6.81,4.805 -11.85,9.883 -15.23,15.227 v 0.012 c -3.61,5.703 -5.34,11.715 -5.34,18.047 0,8.496 3.3,16.25 9.06,21.902 v 0.051 0 c 5.85,5.679 14.21,9.254 24.22,9.254 11.1,0 18.73,-4.16 25.43,-7.86 l 0.43,-1.394 v 0 l 4.66,-15.012 c -4.9,7.461 -10.06,12.207 -15.34,15.02 v -0.008 c -4.68,2.508 -9.47,3.472 -14.25,3.472 -5.38,0 -9.97,-1.265 -13.61,-3.496 v 0.024 0 c -6.08,-3.742 -9.5,-10.129 -9.5,-17.785 0,-11.172 7.58,-17.532 13.98,-22.215 v 0 c 0.75,-0.547 1.49,-1.086 2.2,-1.594 l 19.41,-13.406 c 12.97,-9.035 18.37,-17.246 20.4,-24.985 v -0.015 c 0.83,-3.137 1.1,-6.203 1.1,-9.211 0,-14.668 -8.07,-25.149 -18.66,-30.789 v 0 c -5.94,-3.164 -12.69,-4.809 -19.25,-4.809 -4.09,0 -8.1,0.324 -12.04,0.969 -1.78,0.223 -8.26,1.269 -15.99,3.84 -6.96,2.312 -14.94,5.855 -21.45,11.14 -8.35,6.746 -16.97,18.145 -24.19,28.829 -2.17,3.21 -4.22,6.367 -6.09,9.304 l -5.78,8.789 c -4.85,-0.468 -5.31,-0.468 -11.09,-0.468 h -7.63 v -17.594 0 -25.852 c 0,-9.062 1.53,-12.512 4.59,-14.211"
         style="fill:#ffffff;fill-opacity:1;fill-rule:evenodd;stroke:none"
         id="path64"
         inkscape:connector-curvature="0" /><path
         d="m 3406.58,474.094 7.37,18.308 c -8.09,-11.093 -10.18,-14.336 -21.51,-14.336 h -23.34 c -18.03,0 -20.8,2.774 -20.8,21.961 v 14.067 40 30.758 c 0,4.003 0.35,7.035 1.19,9.308 v -0.066 0 c 1.43,3.972 4.34,5.66 9.44,6.246 l -36.98,1.152 v -1.152 c 5.53,-0.758 8.4,-2.344 9.71,-6.297 v 0.051 0 c 0.66,-2.051 0.92,-4.668 0.92,-8.078 v -31.922 0 -40 0 -24.004 c 0,-9.563 -1.29,-13.938 -4.34,-16.02 v 0.024 0 c -1.6,-1.106 -3.67,-1.567 -6.29,-1.809 l 83.44,-1.152 1.19,2.961"
         style="fill:#ffffff;fill-opacity:1;fill-rule:evenodd;stroke:none"
         id="path66"
         inkscape:connector-curvature="0" /><path
         d="m 3419.84,474.094 v 0 c -1.48,-0.981 -3.43,-1.543 -5.99,-1.809 l 36.5,-1.152 c -2.95,0.617 -5.06,1.582 -6.58,2.898 v 0.063 c -3.57,3.074 -3.81,8.219 -3.81,15.535 v 24.465 40 28.914 c 0,4.785 0.24,8.398 1.11,11.055 v 0.031 0 c 1.27,3.844 3.93,5.699 9.28,6.246 l -36.5,1.152 c 5.64,-1.179 8.24,-3.633 9.41,-7.449 v 0.051 0 c 0.9,-2.942 0.98,-6.606 0.98,-11.086 v -28.914 0 -40 0 -24.465 c 0,-8.43 -0.7,-13.195 -4.4,-15.566"
         style="fill:#ffffff;fill-opacity:1;fill-rule:evenodd;stroke:none"
         id="path68"
         inkscape:connector-curvature="0" /><path
         d="m 3468.91,594.094 v 0 c 4.29,-6.438 4.29,-14.797 4.29,-15.942 v -24.058 0 -40 0 -22.383 c 0,-9.863 -0.99,-15.117 -4.9,-17.602 v -0.015 0 c -1.8,-1.106 -4.18,-1.66 -7.34,-1.809 l 34.43,-1.152 c -4.18,0.652 -7.21,1.34 -9.34,3.027 v -0.066 c -3.14,2.578 -4.29,7.293 -4.29,17.379 v 22.621 40 24.058 l 21.38,-24.058 v 0 l 35.55,-40 v 0 l 35.57,-40 v 0 l 5.51,-6.203 v 6.203 40 40 27.293 c 0,5.769 0.37,9.851 1.36,12.715 v -0.008 0 c 1.53,4.48 4.51,5.972 9.73,6.246 l -33.07,1.152 c 6.72,-0.972 10.22,-2.879 11.94,-7.422 v 0.024 0 c 1.11,-2.981 1.48,-7.051 1.48,-12.707 v -27.293 0 -40 -14.297 l -12.71,14.297 -35.55,40 -35.55,40 v 0 l -6.58,7.398 h -25.88 c 6.99,-0.262 11.31,-3.465 13.97,-7.437"
         style="fill:#ffffff;fill-opacity:1;fill-rule:evenodd;stroke:none"
         id="path70"
         inkscape:connector-curvature="0" /><path
         d="m 3110.78,594.094 v -56.621 h 8.56 c 10.17,0 17.11,0.465 24.74,6.699 2.58,2.117 4.94,5.68 6.62,9.922 1.62,4.07 2.62,8.777 2.62,13.426 0,8.093 -3.24,15.488 -8.32,21.035 -1.74,1.59 -4.2,3.996 -9.57,5.539 v 0 0.027 c -3.22,0.945 -7.5,1.602 -13.32,1.602 h -11.33 v -1.629 0 m -16.72,0 c -1.36,4.07 -4.24,5.742 -9.39,7.398 h 42.54 c 9.63,0 20.29,0 29.65,-7.398 v -0.063 c 0.52,-0.406 1.03,-0.847 1.54,-1.316 6.48,-6.004 10.64,-15.02 10.64,-25.195 0,-3.516 -0.56,-8.418 -2.59,-13.426 v -0.051 c -3.05,-7.57 -9.4,-15.52 -22.13,-19.805 l 6.93,-9.48 c 2.66,-3.84 5.21,-7.383 7.68,-10.664 17.85,-23.899 30.02,-33.528 39.08,-40 v -0.012 c 1.95,-1.406 3.77,-2.656 5.47,-3.879 -0.69,0 -3.23,-0.457 -4.16,-0.457 -1.06,0 -7.07,1.121 -14.79,4.348 v 0 -0.024 c -5.82,2.414 -12.6,5.996 -18.96,11.164 -8.34,6.746 -16.98,18.145 -24.18,28.86 v 0 -0.031 c -2.17,3.21 -4.22,6.367 -6.1,9.304 l -5.78,8.789 c -4.84,-0.468 -5.31,-0.468 -11.09,-0.468 h -7.64 v -17.594 -25.852 c 0,-8.523 1.37,-12.09 4.06,-14.148 v -0.031 c 1.64,-1.25 3.75,-1.973 6.35,-2.93 l -36.52,1.152 c 2.97,0.203 5.1,0.828 6.6,1.809 v 0 0.039 c 3.81,2.555 3.81,7.555 3.81,14.336 v 25.625 0 40 0 31.226 c 0,3.821 -0.31,6.633 -1.02,8.774 v 0"
         style="fill:#ffffff;fill-opacity:1;fill-rule:evenodd;stroke:none"
         id="path72"
         inkscape:connector-curvature="0" /><path
         d="m 3662.48,554.094 8.48,-19.629 h -44.61 l 7.69,19.629 13.56,34.508 14.88,-34.508 m 27.62,-80 v 0 c -1.8,-1.391 -4.26,-1.672 -5.98,-1.809 l 41.6,-1.152 c -4.02,0.769 -6.87,1.66 -9.08,3.008 v -0.047 c -4.39,2.722 -6.33,7.246 -10.33,16.453 l -10.12,23.547 -17.23,40 -17.22,40 v 0 l -6.97,16.187 c -1.16,-2.312 -3.7,-8.082 -11.1,-8.789 l -2.87,-7.398 v 0 l -15.55,-40 v 0 l -15.54,-40 v 0 l -10.41,-26.781 c -2.93,-7.372 -4.83,-11.266 -8.81,-13.258 v 0.039 0 c -2.01,-1.059 -4.57,-1.574 -8.07,-1.809 l 36.06,-1.152 c -2.23,0.871 -5.32,1.465 -7.7,2.969 v -0.008 c -2.09,1.316 -3.63,3.308 -3.63,6.746 0,2.773 0.7,6.008 1.62,7.859 l 9.69,25.395 5.56,14.597 h 49.24 l 6.29,-14.597 v 0 l 10.82,-25.168 c 1.15,-2.766 2.07,-6.465 2.07,-9.473 0,-2.687 -0.98,-4.336 -2.34,-5.371"
         style="fill:#ffffff;fill-opacity:1;fill-rule:evenodd;stroke:none"
         id="path74"
         inkscape:connector-curvature="0" /><path
         d="m 3240.8,594.055 c -23.22,-3.196 -36.03,-20.774 -40.21,-39.961 v 0.047 c -1.04,-4.754 -1.55,-9.61 -1.55,-14.356 0,-9.133 1.86,-17.859 5.24,-25.691 v -0.039 c 9,-21.055 28.92,-35.989 53.47,-35.989 28.64,0 41.94,18.352 47.13,36.028 v -0.071 c 2.01,6.836 2.82,13.567 2.82,19.063 0,7.336 -1.25,14.414 -3.52,21.008 v 0 -0.024 c -7.3,21.098 -25.35,37.016 -47.97,40.024 v 0 -0.031 c -2.52,0.332 -5.08,0.507 -7.69,0.507 -2.7,0 -5.28,-0.183 -7.72,-0.476 v 0 m 50,0.054 c 14.59,-8.757 25.22,-23.093 29.12,-40.054 v -0.024 c 1.08,-4.656 1.64,-9.519 1.64,-14.519 0,-8.703 -1.89,-17.344 -5.31,-25.457 v 0.015 c -7.46,-17.625 -22.27,-32.656 -41.05,-40.015 v 0.015 c -7.9,-3.093 -16.49,-4.824 -25.53,-4.824 -8.93,0 -17.35,1.699 -24.96,4.809 v 0 -0.039 c -17.89,7.195 -31.39,21.953 -36.86,40.039 v 0 -0.024 c -1.74,5.743 -2.67,11.821 -2.67,18.086 0,7.668 1.21,15.024 3.45,21.938 v 0 -0.031 c 5.59,17.167 17.54,31.375 33.01,40.031 v 0 0.027 c 10.51,5.891 22.6,9.227 35.43,9.227 12.46,0 23.98,-3.36 33.73,-9.254"
         style="fill:#ffffff;fill-opacity:1;fill-rule:evenodd;stroke:none"
         id="path76"
         inkscape:connector-curvature="0" /><path
         d="m 3033.26,534.695 -23.03,53.637 -21.62,-53.637 z m -96.96,-60.601 v 0 c -9.3,-2.59 -21.19,-5.278 -36.92,-5.278 -12.92,0 -24.92,1.848 -35.7,5.317 v -0.039 c -22.09,7.129 -39.16,21.035 -49.1,39.969 v 0.031 c -6.07,11.57 -9.49,25.047 -9.71,40.008 v -0.008 c -0.02,0.547 -0.02,1.09 -0.02,1.636 0,14.219 2.95,27.09 8.11,38.391 v -0.027 0 c 15.16,33.16 49.47,52.711 84.8,52.711 10.18,0 22.21,-1.387 36.76,-5.782 l 20.12,-6.933 c 0.68,-7.391 1.15,-9.942 3.92,-22.656 -8.55,18.957 -37.2,28.437 -57.55,28.437 -31.53,0 -56.94,-18.992 -69.38,-45.828 v 0.051 0 c -5.33,-11.594 -8.28,-24.582 -8.28,-38.125 0,-0.649 0,-1.289 0.02,-1.938 v 0.063 0 c 0.33,-14.563 4.51,-28.274 11.66,-40.039 v 0.039 0 c 13.87,-22.824 38.87,-38.34 68.75,-38.34 18.03,0 36.99,5.555 50.86,15.957 9.94,7.391 13.18,14.324 16.4,21.023 0.18,0.469 0.38,0.938 0.55,1.414 4.63,11.915 10.28,26.321 15.67,39.946 6.4,16.25 12.42,31.414 15.84,40.027 v -0.027 0 c 1.85,4.668 2.94,7.398 2.94,7.398 7.39,0.707 9.95,6.477 11.1,8.789 l 6.97,-16.187 v 0 l 17.21,-40 17.22,-40 v 0 l 10.14,-23.547 c 4.22,-9.746 6.17,-14.246 11.11,-16.453 v 0 c 2.11,-0.942 4.73,-1.465 8.31,-1.809 l -41.61,-1.152 c 1.74,0.801 4.26,1.379 6.06,2.922 v 0.039 c 1.33,1.09 2.26,2.73 2.26,5.359 0,3.008 -0.91,6.707 -2.09,9.473 l -10.82,25.168 -6.27,14.597 h -49.23 c 0,0 -1.47,-6.269 -5.28,-14.597 -5.86,-12.832 -17.28,-30.578 -37.58,-37.871 -2.22,-0.664 -4.62,-1.387 -7.24,-2.121"
         style="fill:#ffffff;fill-opacity:1;fill-rule:evenodd;stroke:none"
         id="path78"
         inkscape:connector-curvature="0" /></g></g></svg>